<svg id="Layer_1" data-name="Layer 1" xmlns="http://www.w3.org/2000/svg" width="173.53mm" height="152.09mm" viewBox="0 0 491.88 431.13">
  <defs>
    <style>
      .cls-1 {
        fill: #fcf2df;
      }

      .cls-2 {
        opacity: 0.4;
      }

      .cls-3 {
        fill: #e9e8e7;
      }

      .cls-4 {
        fill: #fff;
      }

      .cls-5 {
        fill: #864d22;
      }
    </style>
  </defs>
  <g>
    <path class="cls-1" d="M380.65,249a42.3,42.3,0,0,0-3.7-6.67,41.16,41.16,0,0,0-7-6.7c-2.66-2-9.06-5.23-14.23-7.11a195.21,195.21,0,0,0-19.13-5.66l-5.27-1.21c-5.36-1.23-14.17-3.08-19.57-4.1l-1.41-.26c-5.4-1-12.58-2.25-15.94-2.72s-8.58-1.16-11.59-1.54-10-.68-15.48-.68H204.25c-5.5,0-14.47.54-19.93,1.2l-3.19.39c-5.46.66-14.36,2-19.78,2.89l-8.92,1.52c-5.42.92-13.79,2.62-18.59,3.78a148.84,148.84,0,0,0-14.32,4.19c-3.07,1.15-8.73,3.66-12.57,5.58a75.33,75.33,0,0,0-10.48,6.29c-1.92,1.54-5.94,11-6.37,15.82s-1.77,9.08-3,9.55a61.09,61.09,0,0,0-6.75,3.71,61.72,61.72,0,0,0-8.07,6.1,51.69,51.69,0,0,0-5.66,6.32,42.7,42.7,0,0,0-3.93,7.41,27.53,27.53,0,0,0-1.74,8.5c0,2.28,1.49,8.39,3.32,13.58l1.64,4.67a194.86,194.86,0,0,0,7.79,18.37l.21.42a82.77,82.77,0,0,0,8.4,13.52,58.78,58.78,0,0,0,8.06,7.63A47.45,47.45,0,0,0,100.86,359a71.1,71.1,0,0,0,14.39,2.83,89.73,89.73,0,0,0,13.94,0c3.24-.36,7.26.62,8.94,2.18a131.69,131.69,0,0,0,11.32,8.45l6.56,4.46c4.55,3.09,11.41,7.48,15.24,9.76a131.55,131.55,0,0,0,16.3,7.75l2.71,1.05a106.47,106.47,0,0,0,19.22,5.06l7.23,1.05a167.77,167.77,0,0,0,19.9,1.43H238a148.56,148.56,0,0,0,19.87-1.62l6.85-1.12a126,126,0,0,0,18.36-4.67,160.69,160.69,0,0,0,15.7-6.75c3.95-2,10.82-6,15.25-8.72a131.23,131.23,0,0,0,15.48-11.72l7.83-7.07a118.25,118.25,0,0,0,13.33-14.78l1.26-1.73c3.25-4.44,7.77-11.11,10.05-14.83a110.65,110.65,0,0,0,7.19-14.6c1.68-4.31,4.32-11.67,5.88-16.34s3.82-12.82,5-18.09a104.09,104.09,0,0,0,2.17-19C382.21,256.88,381.51,251,380.65,249ZM115.17,344l-1.23-.63c-1.29-.74-5.54-4.52-9.45-8.39,0,0-24.65-24.44-17.14-43.78,2.13-5.49,10-2.17,11.27,2.06l.25.8a11.68,11.68,0,0,0,2.73,3.55l.3,1.54.29,1.58c.47,1.71,3.32,6.86,6.35,11.45,0,0,8.94,13.57,13.85,25.65C124.25,342.34,119.52,346.2,115.17,344Z"/>
    <g class="cls-2">
      <path class="cls-3" d="M238.24,211.87c-3.33,4.35-6.06,3.41-6.06-2.09v-2.34c0-5.5,2.31-12.93,5.12-16.52a83.73,83.73,0,0,0,9.06-15.71l.5-1.16c2.17-5.06,3.94-13,3.94-17.58s-4.19-8.37-9.31-8.37H224.93c-4,0-10.28-3.34-14-7.42l-.89-1c-3.69-4.08-5.46-9.52-3.93-12.08a120.05,120.05,0,0,1,7.15-10.24c2.41-3.07,2.33-9.59-.18-14.48l-5.19-10.13c-2.5-4.9-2.47-11.21.08-14a18.24,18.24,0,0,1,11.86-5.12h12.57c2.94,0,5.14-4.5,4.89-10l0-.5c-.25-5.5,1.23-13.56,3.27-17.91s6-8.75,8.85-9.77,8.68-.61,13,.93a93,93,0,0,0,14.43,3.72c3.59.51,8.61-.74,11.17-2.79s7-6,9.78-8.85a20.48,20.48,0,0,1,12.57-5.12h17.22a65.88,65.88,0,0,1,17.88,2.8,34.14,34.14,0,0,1,13.3,9.31c2.86,3.58,2.86,9.66,0,13.5a12.47,12.47,0,0,0,0,14,133.07,133.07,0,0,1,9.12,14.43c2.16,4.1,3.92,10.59,3.92,14.43V106.2c0,4.1-4.28,8.85-9.5,10.56l-5.2,1.7c-5.23,1.7-13.48,1.32-18.35-.85s-10.73-7.52-13-11.87-5.24-5.4-6.52-2.33a85.59,85.59,0,0,0-3.72,11.87c-.77,3.45-5.82,7.15-11.21,8.2l-1.79.35c-5.4,1.06-13.53-.62-18.07-3.73l-1.18-.8c-4.54-3.11-11.6-7.75-15.7-10.31s-10-2.35-13,.47-4.54,8.05-3.26,11.64,5.47,7.56,9.31,8.84,10.54,3.59,14.9,5.12,7.91,6.77,7.91,11.64-2.31,8.84-5.12,8.84a12.09,12.09,0,0,0-8.38,4.19c-1.79,2.31-2.42,6.08-1.4,8.38a25.93,25.93,0,0,1,1.86,8.85c0,2.56-3,8-6.64,12.13l-1.61,1.8c-3.65,4.12-9.15,8.74-12.23,10.27S241.56,207.52,238.24,211.87Z"/>
    </g>
    <line class="cls-4" x1="82.36" y1="295.46" x2="84.98" y2="290.22"/>
    <path class="cls-5" d="M106.94,255.12c-3.76-4-2.53-8.57,2.75-10.14L129,239.26a174.84,174.84,0,0,1,19.47-4.34l33-5a159.52,159.52,0,0,1,19.89-1.5h44.9a179.1,179.1,0,0,1,19.91,1.34l51.66,7a168.7,168.7,0,0,1,19.52,4.08l14.85,4.23c5.29,1.5,11.85,5.12,14.57,8s1,7.48-3.79,10.15l-2.31,1.29a92.66,92.66,0,0,1-18.43,7.32L334.11,274a167.61,167.61,0,0,1-19.64,3.52l-27.39,2.89c-5.47.58-14.45,1.06-19.95,1.06H173.88a111.28,111.28,0,0,1-19.77-2.16L133,274.58a38.15,38.15,0,0,1-16.61-9.45Z"/>
  </g>
</svg>
