<svg id="Layer_1" data-name="Layer 1" xmlns="http://www.w3.org/2000/svg" width="150mm" height="150mm" viewBox="0 0 425.2 425.2">
  <defs>
    <style>
      .cls-1 {
        fill: #fcf2df;
      }

      .cls-2 {
        opacity: 0.4;
      }

      .cls-3 {
        fill: #e9e8e7;
      }

      .cls-4 {
        fill: #fff;
      }

      .cls-5 {
        fill: #864d22;
      }
    </style>
  </defs>
  <g>
    <path class="cls-1" d="M356.48,248.4a43.11,43.11,0,0,0-3.7-6.67,41.54,41.54,0,0,0-7-6.7c-2.66-2-9.07-5.23-14.23-7.11a196.22,196.22,0,0,0-19.14-5.66l-5.27-1.21C301.81,219.82,293,218,287.6,217l-1.41-.26c-5.4-1-12.58-2.25-15.94-2.72s-8.58-1.16-11.59-1.54-10-.68-15.47-.68H180.07c-5.5,0-14.47.54-19.93,1.2l-3.18.39c-5.46.66-14.37,2-19.79,2.89l-8.92,1.52c-5.42.92-13.78,2.62-18.59,3.78s-11.24,3-14.31,4.19-8.73,3.66-12.58,5.58a75.13,75.13,0,0,0-10.47,6.29c-1.92,1.54-5.94,11-6.38,15.82s-1.77,9.08-3,9.55a62,62,0,0,0-6.76,3.71,60.94,60.94,0,0,0-8.06,6.1,52.67,52.67,0,0,0-5.67,6.32,42.69,42.69,0,0,0-3.92,7.41A27.56,27.56,0,0,0,36.8,295c0,2.28,1.5,8.39,3.32,13.58l1.65,4.67a192.27,192.27,0,0,0,7.79,18.37l.21.42a82.37,82.37,0,0,0,8.39,13.52,60,60,0,0,0,8.06,7.63,47.32,47.32,0,0,0,10.47,5.23,70.86,70.86,0,0,0,14.38,2.83,89.86,89.86,0,0,0,14,0c3.23-.36,7.25.62,8.93,2.18a134,134,0,0,0,11.33,8.46l6.55,4.45c4.55,3.09,11.41,7.48,15.25,9.76a130.87,130.87,0,0,0,16.3,7.75l2.71,1A106,106,0,0,0,185.31,400l7.23,1.05a167.46,167.46,0,0,0,19.89,1.43h1.36a150.23,150.23,0,0,0,19.87-1.61l6.85-1.13A126.12,126.12,0,0,0,258.88,395a159.12,159.12,0,0,0,15.69-6.75c4-2,10.82-6,15.26-8.72a132.06,132.06,0,0,0,15.48-11.72l7.83-7.07A118.17,118.17,0,0,0,326.46,346l1.26-1.73c3.25-4.44,7.77-11.11,10-14.83a109.43,109.43,0,0,0,7.19-14.6c1.68-4.31,4.33-11.67,5.89-16.34s3.81-12.82,5-18.09a103.24,103.24,0,0,0,2.18-19C358,256.29,357.34,250.42,356.48,248.4ZM91,343.37l-1.22-.63c-1.3-.74-5.55-4.52-9.46-8.39,0,0-24.65-24.44-17.14-43.78,2.14-5.49,10-2.17,11.27,2.06l.25.8A11.74,11.74,0,0,0,77.43,297l.29,1.55.3,1.57c.46,1.71,3.31,6.86,6.34,11.45,0,0,8.94,13.57,13.86,25.65C100.07,341.75,95.34,345.61,91,343.37Z"/>
    <g class="cls-2">
      <path class="cls-3" d="M214.06,211.28c-3.33,4.35-6.05,3.41-6.05-2.09v-2.34c0-5.5,2.3-12.93,5.12-16.52a84.28,84.28,0,0,0,9.06-15.71l.5-1.16c2.17-5.06,3.94-13,3.94-17.58s-4.19-8.37-9.31-8.37H200.75c-4,0-10.28-3.34-14-7.42l-.9-1c-3.68-4.08-5.45-9.52-3.93-12.08a122.37,122.37,0,0,1,7.15-10.24c2.41-3.07,2.33-9.59-.18-14.48l-5.18-10.13c-2.51-4.9-2.48-11.21.07-14A18.24,18.24,0,0,1,195.68,73h12.57c2.94,0,5.14-4.5,4.89-10l0-.5c-.25-5.5,1.22-13.56,3.27-17.91s6-8.75,8.84-9.77,8.68-.61,13,.93a92.68,92.68,0,0,0,14.43,3.72c3.58.51,8.61-.74,11.17-2.79s7-6,9.77-8.85a20.5,20.5,0,0,1,12.57-5.12h17.22a66,66,0,0,1,17.89,2.8,34.21,34.21,0,0,1,13.3,9.31c2.85,3.58,2.85,9.66,0,13.5a12.43,12.43,0,0,0,0,14,134.53,134.53,0,0,1,9.11,14.43c2.16,4.1,3.93,10.59,3.93,14.43v14.43c0,4.1-4.28,8.85-9.51,10.56l-5.19,1.7c-5.23,1.7-13.49,1.32-18.35-.85s-10.73-7.52-13-11.87-5.23-5.4-6.51-2.33a85.61,85.61,0,0,0-3.73,11.87c-.77,3.46-5.81,7.15-11.21,8.2l-1.78.35c-5.4,1.06-13.53-.62-18.07-3.72l-1.18-.81c-4.54-3.11-11.61-7.75-15.7-10.31s-10-2.35-13,.47-4.54,8-3.26,11.64,5.47,7.56,9.31,8.84,10.55,3.59,14.9,5.12,7.91,6.78,7.91,11.64-2.3,8.84-5.12,8.84a12.13,12.13,0,0,0-8.38,4.19c-1.79,2.31-2.42,6.08-1.39,8.38a26.17,26.17,0,0,1,1.86,8.85c0,2.56-3,8-6.65,12.13l-1.6,1.8c-3.66,4.12-9.16,8.74-12.23,10.27S217.39,206.93,214.06,211.28Z"/>
    </g>
    <line class="cls-4" x1="58.19" y1="294.87" x2="60.81" y2="289.63"/>
    <path class="cls-5" d="M82.77,254.53c-3.77-4-2.53-8.57,2.74-10.14l19.31-5.72a175,175,0,0,1,19.48-4.34l33-5a159.22,159.22,0,0,1,19.88-1.5h44.91A179.1,179.1,0,0,1,242,229.17l51.65,7a168.87,168.87,0,0,1,19.53,4.08L328,244.5c5.29,1.5,11.84,5.12,14.57,8s1,7.48-3.8,10.15L336.47,264A92.66,92.66,0,0,1,318,271.29l-8.11,2.07a167.44,167.44,0,0,1-19.63,3.52l-27.4,2.89c-5.47.58-14.44,1.06-19.94,1.06H149.7a111.17,111.17,0,0,1-19.76-2.16L108.78,274a38.1,38.1,0,0,1-16.61-9.45Z"/>
  </g>
</svg>
