<svg id="Layer_1" data-name="Layer 1" xmlns="http://www.w3.org/2000/svg" width="1116" height="806" viewBox="0 0 1116 806">
  <defs>
    <style>
      .cls-1 {
        fill: #603813;
      }

      .cls-2 {
        fill: #fff;
      }

      .cls-3 {
        fill: #ffe4bf;
      }

      .cls-4 {
        fill: #e6e6e6;
      }

      .cls-5, .cls-6, .cls-7, .cls-8 {
        fill: #fff9df;
        stroke: #fff9df;
      }

      .cls-10, .cls-12, .cls-5, .cls-6, .cls-7, .cls-8 {
        stroke-miterlimit: 10;
      }

      .cls-5 {
        stroke-width: 1.06px;
      }

      .cls-6 {
        stroke-width: 1.06px;
      }

      .cls-7 {
        stroke-width: 1.48px;
      }

      .cls-8 {
        stroke-width: 1.16px;
      }

      .cls-9 {
        fill: #7f4f00;
      }

      .cls-10 {
        fill: none;
      }

      .cls-10, .cls-12 {
        stroke: #000;
        stroke-width: 0.23px;
      }

      .cls-11, .cls-12 {
        fill: #ffedbf;
      }

      .cls-11 {
        fill-rule: evenodd;
      }

      .cls-13 {
        fill: #ffd4e4;
      }

      .cls-14 {
        fill: #c8ffbf;
      }

      .cls-15 {
        fill: #fc6;
      }

      .cls-16 {
        fill: #c7b299;
      }

      .cls-17 {
        fill: #ff715f;
      }

      .cls-18 {
        fill: #ffc79f;
      }
    </style>
  </defs>
  <g>
    <g>
      <ellipse class="cls-1" cx="459.65" cy="699.79" rx="68.04" ry="62.73"/>
      <ellipse class="cls-2" cx="459.36" cy="699.79" rx="55.36" ry="51.03"/>
      <ellipse class="cls-1" cx="459.4" cy="700.15" rx="8.76" ry="8.08"/>
      <rect class="cls-1" x="456.99" y="647.16" width="4.25" height="46.78"/>
      <rect class="cls-1" x="456.85" y="646.21" width="4.25" height="110.15" transform="translate(836.82 -46.84) rotate(60)"/>
      <rect class="cls-1" x="456" y="642.51" width="4.38" height="114.84" transform="translate(1287.42 589.45) rotate(115.62)"/>
      <rect class="cls-1" x="457.88" y="706.23" width="4.38" height="48.74" transform="translate(920.14 1461.2) rotate(180)"/>
    </g>
    <g>
      <ellipse class="cls-1" cx="689.74" cy="703.52" rx="68.04" ry="62.73"/>
      <ellipse class="cls-2" cx="689.45" cy="703.52" rx="55.36" ry="51.03"/>
      <ellipse class="cls-1" cx="689.49" cy="703.88" rx="8.76" ry="8.08"/>
      <rect class="cls-1" x="687.08" y="650.89" width="4.25" height="46.78"/>
      <rect class="cls-1" x="686.94" y="649.94" width="4.25" height="110.15" transform="translate(955.09 -244.24) rotate(60)"/>
      <rect class="cls-1" x="686.09" y="646.23" width="4.38" height="114.84" transform="translate(1620.37 387.32) rotate(115.62)"/>
      <rect class="cls-1" x="687.97" y="709.96" width="4.38" height="48.74" transform="translate(1380.32 1468.65) rotate(180)"/>
    </g>
    <rect class="cls-3" x="358.65" y="263.88" width="20.2" height="211.58"/>
    <rect class="cls-3" x="773.29" y="263.88" width="20.2" height="208.39"/>
    <rect class="cls-4" x="391.61" y="51.24" width="362.55" height="179.68"/>
    <rect class="cls-4" x="346.95" y="88.45" width="44.65" height="142.47" transform="translate(157.96 -182.68) rotate(34.93)"/>
    <rect class="cls-5" x="746.56" y="79.19" width="44.65" height="142.48" transform="translate(45.01 450.12) rotate(-33.56)"/>
    <ellipse class="cls-4" cx="345.89" cy="233.05" rx="46.78" ry="42.53"/>
    <ellipse class="cls-4" cx="438.39" cy="233.05" rx="46.78" ry="42.53"/>
    <ellipse class="cls-4" cx="531.95" cy="233.05" rx="46.78" ry="42.53"/>
    <ellipse class="cls-6" cx="625.51" cy="233.05" rx="46.78" ry="42.53"/>
    <ellipse class="cls-4" cx="719.07" cy="236.24" rx="46.78" ry="42.53"/>
    <ellipse class="cls-4" cx="375.13" cy="196.9" rx="24.99" ry="27.64"/>
    <ellipse class="cls-7" cx="756.28" cy="195.3" rx="21.26" ry="26.05"/>
    <ellipse class="cls-8" cx="762.13" cy="185.73" rx="37.74" ry="44.12"/>
    <rect class="cls-3" x="317.71" y="469.08" width="510.87" height="12.76"/>
    <rect class="cls-3" x="346.42" y="481.3" width="453.98" height="194.56"/>
    <rect class="cls-3" x="317.33" y="675.81" width="510.87" height="12.76"/>
    <ellipse class="cls-9" cx="497.61" cy="363.46" rx="15.55" ry="17.02"/>
    <g>
      <polygon class="cls-10" points="510.77 372.79 509.56 375.91 496.85 408.69 484.46 372.32 510.77 372.79"/>
      <polygon class="cls-11" points="510.77 372.79 509.56 375.91 496.85 408.69 484.46 372.32 510.77 372.79"/>
    </g>
    <line class="cls-10" x1="504.9" y1="372.79" x2="508.59" y2="378.38"/>
    <line class="cls-10" x1="499.24" y1="372.56" x2="506.64" y2="383.75"/>
    <line class="cls-10" x1="495.11" y1="372.56" x2="504.68" y2="388.41"/>
    <line class="cls-12" x1="489.68" y1="372.32" x2="502.72" y2="393.54"/>
    <line class="cls-12" x1="485.76" y1="372.32" x2="500.98" y2="397.73"/>
    <line class="cls-12" x1="489.63" y1="387.79" x2="501.8" y2="407.84"/>
    <line class="cls-10" x1="493.76" y1="399.68" x2="500.72" y2="410.64"/>
    <line class="cls-10" x1="497.46" y1="410.64" x2="499.63" y2="413.44"/>
    <line class="cls-10" x1="491.41" y1="372.56" x2="487.07" y2="380.02"/>
    <line class="cls-10" x1="496.2" y1="372.56" x2="489.02" y2="385.61"/>
    <line class="cls-10" x1="499.9" y1="372.56" x2="490.76" y2="390.97"/>
    <line class="cls-12" x1="503.37" y1="372.56" x2="492.72" y2="396.8"/>
    <line class="cls-12" x1="506.85" y1="372.79" x2="494.46" y2="401.46"/>
    <line class="cls-12" x1="509.46" y1="372.79" x2="495.55" y2="405.19"/>
    <ellipse class="cls-13" cx="458.84" cy="362.66" rx="15.55" ry="17.02"/>
    <g>
      <polygon class="cls-10" points="471.99 371.98 470.78 375.1 458.07 407.88 445.68 371.51 471.99 371.98"/>
      <polygon class="cls-11" points="471.99 371.98 470.78 375.1 458.07 407.88 445.68 371.51 471.99 371.98"/>
    </g>
    <line class="cls-10" x1="466.12" y1="371.98" x2="469.82" y2="377.58"/>
    <line class="cls-10" x1="460.47" y1="371.75" x2="467.86" y2="382.94"/>
    <line class="cls-10" x1="456.33" y1="371.75" x2="465.9" y2="387.6"/>
    <line class="cls-12" x1="450.9" y1="371.52" x2="463.95" y2="392.73"/>
    <line class="cls-12" x1="446.98" y1="371.52" x2="462.21" y2="396.93"/>
    <line class="cls-12" x1="448.72" y1="380.61" x2="460.9" y2="400.66"/>
    <line class="cls-10" x1="454.98" y1="398.88" x2="461.94" y2="409.83"/>
    <line class="cls-10" x1="458.68" y1="409.83" x2="460.85" y2="412.63"/>
    <line class="cls-10" x1="452.64" y1="371.75" x2="448.29" y2="379.21"/>
    <line class="cls-10" x1="457.42" y1="371.75" x2="450.25" y2="384.8"/>
    <line class="cls-10" x1="461.12" y1="371.75" x2="451.99" y2="390.17"/>
    <line class="cls-12" x1="464.6" y1="371.75" x2="453.94" y2="395.99"/>
    <line class="cls-12" x1="468.08" y1="371.98" x2="455.68" y2="400.66"/>
    <line class="cls-12" x1="470.69" y1="371.98" x2="456.77" y2="404.39"/>
    <ellipse class="cls-14" cx="536.45" cy="364.78" rx="15.55" ry="17.02"/>
    <g>
      <polygon class="cls-10" points="549.61 374.11 548.4 377.23 535.69 410.01 523.29 373.64 549.61 374.11"/>
      <polygon class="cls-11" points="549.61 374.11 548.4 377.23 535.69 410.01 523.29 373.64 549.61 374.11"/>
    </g>
    <line class="cls-10" x1="543.73" y1="374.11" x2="547.43" y2="379.7"/>
    <line class="cls-10" x1="538.08" y1="373.87" x2="545.47" y2="385.07"/>
    <line class="cls-10" x1="533.95" y1="373.87" x2="543.52" y2="389.73"/>
    <line class="cls-12" x1="528.51" y1="373.64" x2="541.56" y2="394.86"/>
    <line class="cls-12" x1="524.6" y1="373.64" x2="539.82" y2="399.05"/>
    <line class="cls-12" x1="528.46" y1="389.11" x2="540.64" y2="409.16"/>
    <line class="cls-10" x1="532.6" y1="401" x2="539.55" y2="411.96"/>
    <line class="cls-10" x1="536.29" y1="411.96" x2="538.47" y2="414.76"/>
    <line class="cls-10" x1="530.25" y1="373.87" x2="525.9" y2="381.34"/>
    <line class="cls-10" x1="535.04" y1="373.87" x2="527.86" y2="386.93"/>
    <line class="cls-10" x1="538.73" y1="373.87" x2="529.6" y2="392.29"/>
    <line class="cls-12" x1="542.21" y1="373.87" x2="531.56" y2="398.12"/>
    <line class="cls-12" x1="545.69" y1="374.11" x2="533.3" y2="402.78"/>
    <line class="cls-12" x1="548.3" y1="374.11" x2="534.38" y2="406.51"/>
    <rect class="cls-15" x="409.15" y="400.5" width="145.66" height="71.23"/>
    <polygon class="cls-16" points="391.76 88.5 754.16 88.5 754.16 51.24 391.61 51.24 391.76 88.5"/>
    <ellipse class="cls-6" cx="794.92" cy="228.74" rx="46.78" ry="42.53"/>
    <line class="cls-5" x1="760.39" y1="257.43" x2="672.29" y2="88.5"/>
    <path class="cls-17" d="M754.16,88.5l71.29,106.8s35.51,34,1.81,64.16-67,1.86-66.87,0-99.6-171-99.6-171Z"/>
    <path class="cls-17" d="M583.3,88.1l73,109.24s36.37,34.79,1.85,65.63-68.67,1.9-68.5,0-102-174.87-102-174.87Z"/>
    <path class="cls-17" d="M391.7,88.5l93.36,147.6s-2.57,29.5-28.81,36.25-39.16-1.42-39.16-1.42-18.07-7.68-21.58-20.76L392,237.1l-41.94-89Z"/>
    <polygon class="cls-18" points="515.17 626.58 515.17 644.09 515.17 661.59 499.5 652.84 483.83 644.09 499.5 635.34 515.17 626.58"/>
    <polygon class="cls-18" points="645.62 662.48 645.69 644.48 645.75 626.47 661.11 635.53 676.47 644.59 661.05 653.53 645.62 662.48"/>
    <rect class="cls-18" x="514.48" y="626.58" width="131.9" height="35.33"/>
  </g>
</svg>
