<svg id="Layer_1" data-name="Layer 1" xmlns="http://www.w3.org/2000/svg" xmlns:xlink="http://www.w3.org/1999/xlink" width="471" height="929" viewBox="0 0 471 929">
  <defs>
    <style>
      .cls-1, .cls-9 {
        fill: none;
      }

      .cls-2 {
        clip-path: url(#clip-path);
      }

      .cls-3 {
        isolation: isolate;
      }

      .cls-11, .cls-4 {
        fill: #020202;
      }

      .cls-5 {
        clip-path: url(#clip-path-2);
      }

      .cls-6 {
        fill: #030303;
      }

      .cls-7 {
        clip-path: url(#clip-path-3);
      }

      .cls-8 {
        fill: #fff;
      }

      .cls-9 {
        stroke: #fff;
        stroke-width: 2px;
      }

      .cls-10 {
        clip-path: url(#clip-path-4);
      }

      .cls-11 {
        fill-rule: evenodd;
      }

      .cls-12 {
        clip-path: url(#clip-path-5);
      }

      .cls-13 {
        fill: #f7f4f4;
      }

      .cls-14 {
        fill: #d1cdd0;
      }

      .cls-15 {
        fill: #f7c4e7;
      }

      .cls-16 {
        fill: #cdcbfd;
      }

      .cls-17 {
        fill: #b8eaaf;
      }

      .cls-18 {
        fill: #b978b9;
      }

      .cls-19 {
        fill: #f4f1df;
      }

      .cls-20 {
        clip-path: url(#clip-path-6);
      }

      .cls-21 {
        clip-path: url(#clip-path-7);
      }
    </style>
    <clipPath id="clip-path">
      <rect class="cls-1" x="385.73" y="85.34" width="16" height="16"/>
    </clipPath>
    <clipPath id="clip-path-2">
      <rect class="cls-1" x="74.73" y="85.34" width="16" height="16"/>
    </clipPath>
    <clipPath id="clip-path-3">
      <rect class="cls-1" x="202.73" y="279.34" width="70" height="70"/>
    </clipPath>
    <clipPath id="clip-path-4">
      <rect class="cls-1" x="325.73" y="85.34" width="16" height="16"/>
    </clipPath>
    <clipPath id="clip-path-5">
      <rect class="cls-1" x="355.73" y="85.34" width="16" height="16"/>
    </clipPath>
    <clipPath id="clip-path-6">
      <rect class="cls-1" x="46.73" y="306.34" width="16" height="16"/>
    </clipPath>
    <clipPath id="clip-path-7">
      <rect class="cls-1" x="409.73" y="306.34" width="16" height="16"/>
    </clipPath>
  </defs>
  <g class="cls-2">
    <g id="Close">
      <path id="Union_3" data-name="Union 3" d="M393.51,94.54l-6.37,6.36-1.41-1.41,6.36-6.37-6.36-6.36,1.41-1.42,6.37,6.37,6.36-6.37,1.42,1.42-6.37,6.36,6.37,6.37-1.42,1.41Z"/>
      <rect id="Rectangle_1468" data-name="Rectangle 1468" class="cls-1" x="385.73" y="85.34" width="16" height="16"/>
    </g>
  </g>
  <g id="Hvid_T-shirt" data-name="Hvid T-shirt" class="cls-3">
    <g class="cls-3">
      <path class="cls-4" d="M194.9,99.34V87.89h2.31V92.4h4.53V87.89h2.31V99.34h-2.31v-5h-4.53v5Z"/>
      <path class="cls-4" d="M208.71,99.34l-3.34-8.29h2.3l1.56,4.23.46,1.42c.12-.36.19-.6.22-.72s.15-.46.24-.7l1.58-4.23H214l-3.29,8.29Z"/>
      <path class="cls-4" d="M215.33,89.92v-2h2.19v2Zm0,9.42V91.05h2.19v8.29Z"/>
      <path class="cls-4" d="M227.38,99.34h-2V98.12a3.25,3.25,0,0,1-1.2,1.06,3,3,0,0,1-1.39.35,3.16,3.16,0,0,1-2.45-1.15,4.69,4.69,0,0,1-1-3.22,4.63,4.63,0,0,1,1-3.2,3.25,3.25,0,0,1,2.51-1.1A3.12,3.12,0,0,1,225.19,92V87.89h2.19ZM221.52,95a3.76,3.76,0,0,0,.37,1.92,1.66,1.66,0,0,0,1.48.86,1.61,1.61,0,0,0,1.29-.65,2.93,2.93,0,0,0,.53-1.92,3.28,3.28,0,0,0-.51-2.06,1.7,1.7,0,0,0-2.63,0A2.81,2.81,0,0,0,221.52,95Z"/>
      <path class="cls-4" d="M236.58,99.34V89.83h-3.39V87.89h9.1v1.94H238.9v9.51Z"/>
      <path class="cls-4" d="M242.63,96.29v-2.2h4.31v2.2Z"/>
      <path class="cls-4" d="M247.44,97l2.2-.34a1.56,1.56,0,0,0,.57,1,1.94,1.94,0,0,0,1.2.34,2.13,2.13,0,0,0,1.28-.32.67.67,0,0,0,.29-.58.6.6,0,0,0-.15-.42,1.87,1.87,0,0,0-.74-.29,11.48,11.48,0,0,1-3.36-1.07,2.12,2.12,0,0,1-1-1.86,2.34,2.34,0,0,1,.85-1.82,4,4,0,0,1,2.64-.73,4.59,4.59,0,0,1,2.53.55,2.83,2.83,0,0,1,1.15,1.64l-2.08.39a1.2,1.2,0,0,0-.5-.74,1.79,1.79,0,0,0-1.06-.26,2.39,2.39,0,0,0-1.24.24.5.5,0,0,0-.25.44.47.47,0,0,0,.22.4,7.77,7.77,0,0,0,2.05.62,6.07,6.07,0,0,1,2.45,1,2,2,0,0,1,.69,1.63,2.5,2.5,0,0,1-1,2,4.18,4.18,0,0,1-2.82.82,4.61,4.61,0,0,1-2.68-.69A3.12,3.12,0,0,1,247.44,97Z"/>
      <path class="cls-4" d="M259.3,87.89V92.1a3.21,3.21,0,0,1,2.53-1.24,3.17,3.17,0,0,1,1.37.28,2.28,2.28,0,0,1,.92.72,2.41,2.41,0,0,1,.42,1,8.14,8.14,0,0,1,.12,1.65v4.86h-2.2V95a6.16,6.16,0,0,0-.13-1.66,1,1,0,0,0-.44-.55,1.39,1.39,0,0,0-.79-.21,1.91,1.91,0,0,0-1,.26,1.56,1.56,0,0,0-.62.81,4.55,4.55,0,0,0-.2,1.58v4.15h-2.2V87.89Z"/>
      <path class="cls-4" d="M266.88,89.92v-2h2.2v2Zm0,9.42V91.05h2.2v8.29Z"/>
      <path class="cls-4" d="M273.43,99.34h-2.2V91.05h2v1.18a3.74,3.74,0,0,1,.94-1.11,1.81,1.81,0,0,1,1-.26,2.87,2.87,0,0,1,1.45.41l-.68,1.92a1.94,1.94,0,0,0-1-.36,1.2,1.2,0,0,0-.78.25,1.7,1.7,0,0,0-.51.92,13.27,13.27,0,0,0-.18,2.78Z"/>
      <path class="cls-4" d="M281.36,91.05V92.8h-1.5v3.34a8.21,8.21,0,0,0,0,1.18.47.47,0,0,0,.2.28.62.62,0,0,0,.37.11,2.89,2.89,0,0,0,.88-.21l.19,1.7a4.35,4.35,0,0,1-1.74.33,2.83,2.83,0,0,1-1.07-.2,1.6,1.6,0,0,1-.7-.51,2.07,2.07,0,0,1-.3-.86,10.17,10.17,0,0,1-.07-1.55V92.8h-1V91.05h1V89.4l2.2-1.28v2.93Z"/>
    </g>
  </g>
  <g class="cls-5">
    <g id="Backward_arrow" data-name="Backward arrow">
      <path id="Path_10" data-name="Path 10" class="cls-6" d="M82.73,101.34l1.45-1.45-5.5-5.51h12V92.31h-12l5.5-5.51-1.45-1.46-8,8Z"/>
    </g>
  </g>
  <g id="song">
    <path id="Path_643" data-name="Path 643" d="M75.73,151.91H401.38V477.56H75.73Z"/>
  </g>
  <g class="cls-7">
    <g id="Play">
      <path id="Path_5" data-name="Path 5" class="cls-8" d="M246.73,314.34l-13-8v16Z"/>
      <g id="Ellipse_2" data-name="Ellipse 2">
        <circle class="cls-1" cx="237.73" cy="314.34" r="35"/>
        <circle class="cls-9" cx="237.73" cy="314.34" r="34"/>
      </g>
    </g>
  </g>
  <g id="Hvid_T-shirt_200_DKK" data-name="Hvid T-shirt 200 DKK" class="cls-3">
    <g class="cls-3">
      <path class="cls-4" d="M171.8,545.34V527.45h3.62v7h7.08v-7h3.61v17.89H182.5v-7.82h-7.08v7.82Z"/>
      <path class="cls-4" d="M193.39,545.34l-5.23-13h3.6l2.45,6.62.7,2.21c.19-.57.31-.94.36-1.12.11-.36.23-.73.36-1.09l2.47-6.62h3.53l-5.15,13Z"/>
      <path class="cls-4" d="M203.73,530.62v-3.17h3.43v3.17Zm0,14.72v-13h3.43v13Z"/>
      <path class="cls-4" d="M222.56,545.34h-3.18v-1.9a5.15,5.15,0,0,1-1.88,1.65,4.7,4.7,0,0,1-2.18.55,4.92,4.92,0,0,1-3.82-1.8,8.79,8.79,0,0,1-.05-10,5.07,5.07,0,0,1,3.92-1.71,4.86,4.86,0,0,1,3.76,1.8v-6.44h3.43Zm-9.15-6.76a5.94,5.94,0,0,0,.57,3,2.59,2.59,0,0,0,2.32,1.35,2.52,2.52,0,0,0,2-1,4.6,4.6,0,0,0,.83-3,5.09,5.09,0,0,0-.8-3.22,2.57,2.57,0,0,0-2.06-1,2.6,2.6,0,0,0-2.05,1A4.38,4.38,0,0,0,213.41,538.58Z"/>
      <path class="cls-4" d="M236.94,545.34V530.48h-5.31v-3h14.22v3h-5.3v14.86Z"/>
      <path class="cls-4" d="M246.39,540.57v-3.43h6.74v3.43Z"/>
      <path class="cls-4" d="M253.9,541.64l3.44-.52a2.53,2.53,0,0,0,.89,1.52,3,3,0,0,0,1.88.52,3.33,3.33,0,0,0,2-.49,1.09,1.09,0,0,0,.45-.92.89.89,0,0,0-.24-.64,2.64,2.64,0,0,0-1.15-.45,18.3,18.3,0,0,1-5.26-1.68,3.35,3.35,0,0,1-1.54-2.91,3.63,3.63,0,0,1,1.33-2.84,6.27,6.27,0,0,1,4.13-1.14,7.32,7.32,0,0,1,4,.86,4.49,4.49,0,0,1,1.78,2.57l-3.24.6a2,2,0,0,0-.79-1.16,2.83,2.83,0,0,0-1.65-.41,3.75,3.75,0,0,0-1.94.38.81.81,0,0,0-.39.7.75.75,0,0,0,.34.62,12.67,12.67,0,0,0,3.21,1,9.62,9.62,0,0,1,3.82,1.53,3.16,3.16,0,0,1,1.08,2.55,3.94,3.94,0,0,1-1.49,3.07,6.63,6.63,0,0,1-4.41,1.28,7.18,7.18,0,0,1-4.19-1.08A4.9,4.9,0,0,1,253.9,541.64Z"/>
      <path class="cls-4" d="M272.43,527.45V534a5,5,0,0,1,4-1.94,4.94,4.94,0,0,1,2.14.44,3.37,3.37,0,0,1,1.43,1.12,3.85,3.85,0,0,1,.66,1.51,13.44,13.44,0,0,1,.18,2.58v7.6h-3.43V538.5a10.23,10.23,0,0,0-.19-2.59,1.65,1.65,0,0,0-.69-.87,2.2,2.2,0,0,0-1.24-.33,2.84,2.84,0,0,0-1.53.42,2.35,2.35,0,0,0-1,1.25,7.41,7.41,0,0,0-.31,2.47v6.49H269V527.45Z"/>
      <path class="cls-4" d="M284.28,530.62v-3.17h3.43v3.17Zm0,14.72v-13h3.43v13Z"/>
      <path class="cls-4" d="M294.51,545.34h-3.43v-13h3.19v1.84a5.45,5.45,0,0,1,1.47-1.72,2.74,2.74,0,0,1,1.48-.41,4.38,4.38,0,0,1,2.26.64l-1.06,3a3.07,3.07,0,0,0-1.62-.56,1.94,1.94,0,0,0-1.22.4,2.7,2.7,0,0,0-.78,1.43,20.46,20.46,0,0,0-.29,4.35Z"/>
      <path class="cls-4" d="M306.9,532.38v2.73h-2.34v5.23a14.58,14.58,0,0,0,.06,1.85.78.78,0,0,0,.31.43.93.93,0,0,0,.58.17,4.41,4.41,0,0,0,1.38-.33l.29,2.66a6.68,6.68,0,0,1-2.71.52,4.4,4.4,0,0,1-1.67-.31,2.42,2.42,0,0,1-1.09-.81,3.11,3.11,0,0,1-.49-1.34,17,17,0,0,1-.11-2.41v-5.66h-1.57v-2.73h1.57V529.8l3.45-2v4.58Z"/>
    </g>
    <g class="cls-3">
      <path class="cls-4" d="M200,587.16v3.18h-12a8.3,8.3,0,0,1,1.17-3.42,23,23,0,0,1,3.86-4.29,24.35,24.35,0,0,0,2.85-2.93,3.79,3.79,0,0,0,.7-2.1,2.37,2.37,0,0,0-.61-1.76,2.61,2.61,0,0,0-3.41,0,3.29,3.29,0,0,0-.74,2.14l-3.41-.34a5.6,5.6,0,0,1,1.91-4.06,6.46,6.46,0,0,1,4-1.23,5.82,5.82,0,0,1,4.16,1.42,4.71,4.71,0,0,1,1.52,3.56,6.19,6.19,0,0,1-.44,2.3,9.47,9.47,0,0,1-1.37,2.29,22.51,22.51,0,0,1-2.25,2.28c-1.08,1-1.76,1.65-2,2a5.71,5.71,0,0,0-.71.95Z"/>
      <path class="cls-4" d="M208.08,572.38a4.88,4.88,0,0,1,4.07,1.85c1.16,1.47,1.74,3.89,1.74,7.29s-.58,5.82-1.75,7.3a4.89,4.89,0,0,1-4.06,1.83,5.12,5.12,0,0,1-4.21-2c-1.06-1.34-1.6-3.72-1.6-7.16s.59-5.79,1.76-7.27A4.88,4.88,0,0,1,208.08,572.38Zm0,2.84a1.7,1.7,0,0,0-1.11.4,2.59,2.59,0,0,0-.75,1.42,19.25,19.25,0,0,0-.36,4.48,19.58,19.58,0,0,0,.32,4.33,3,3,0,0,0,.8,1.56,1.7,1.7,0,0,0,1.1.39,1.76,1.76,0,0,0,1.12-.39A2.74,2.74,0,0,0,210,586a19.15,19.15,0,0,0,.36-4.47,19.58,19.58,0,0,0-.32-4.33,3.07,3.07,0,0,0-.8-1.57A1.67,1.67,0,0,0,208.08,575.22Z"/>
      <path class="cls-4" d="M222,572.38a4.86,4.86,0,0,1,4.06,1.85c1.17,1.47,1.75,3.89,1.75,7.29s-.59,5.82-1.76,7.3a4.88,4.88,0,0,1-4,1.83,5.11,5.11,0,0,1-4.21-2c-1.07-1.34-1.6-3.72-1.6-7.16s.58-5.79,1.76-7.27A4.86,4.86,0,0,1,222,572.38Zm0,2.84a1.67,1.67,0,0,0-1.11.4,2.59,2.59,0,0,0-.76,1.42,19.4,19.4,0,0,0-.35,4.48,19.76,19.76,0,0,0,.31,4.33,3,3,0,0,0,.8,1.56,1.73,1.73,0,0,0,1.11.39,1.75,1.75,0,0,0,1.11-.39,2.74,2.74,0,0,0,.76-1.42,19.88,19.88,0,0,0,.35-4.47,19.58,19.58,0,0,0-.32-4.33,3.07,3.07,0,0,0-.8-1.57A1.66,1.66,0,0,0,222,575.22Z"/>
      <path class="cls-4" d="M237.78,572.45h6.61a12.76,12.76,0,0,1,3.4.34,6,6,0,0,1,2.7,1.65,7.75,7.75,0,0,1,1.71,2.9,13.19,13.19,0,0,1,.59,4.23,12,12,0,0,1-.55,3.81,8,8,0,0,1-1.92,3.16,6.33,6.33,0,0,1-2.54,1.42,10.67,10.67,0,0,1-3.2.38h-6.8Zm3.62,3v11.85h2.69a10.17,10.17,0,0,0,2.19-.17,3.38,3.38,0,0,0,1.46-.75,3.79,3.79,0,0,0,.94-1.72,11.51,11.51,0,0,0,.37-3.28,10.48,10.48,0,0,0-.37-3.19,4,4,0,0,0-1-1.73,3.36,3.36,0,0,0-1.67-.84,16,16,0,0,0-3-.17Z"/>
      <path class="cls-4" d="M255.9,590.34V572.45h3.61v7.94l7.3-7.94h4.86l-6.74,7L272,590.34h-4.68L262.44,582l-2.93,3v5.4Z"/>
      <path class="cls-4" d="M274,590.34V572.45h3.62v7.94l7.3-7.94h4.85l-6.73,7,7.1,10.92h-4.67L280.5,582l-2.93,3v5.4Z"/>
    </g>
  </g>
  <g class="cls-10">
    <g id="Bag">
      <path id="Path_152" data-name="Path 152" class="cls-11" d="M335.73,92.34a.94.94,0,0,0,.89,1h.11a.93.93,0,0,0,1-.88v-.12a1,1,0,0,0-.89-1h-.11a1,1,0,0,0-1,.89Zm-6,0a.94.94,0,0,0,.89,1h.11a.93.93,0,0,0,1-.88v-.12a1,1,0,0,0-.89-1h-.11a1,1,0,0,0-1,.89Zm11-2.1,1,10a1.11,1.11,0,0,1-.3.8.77.77,0,0,1-.7.3h-14a.76.76,0,0,1-.7-.3,1.11,1.11,0,0,1-.3-.8l1-10a1.07,1.07,0,0,1,1-.9h2a4,4,0,0,1,8,0h2A1.08,1.08,0,0,1,340.73,90.24Zm-5-.9h-4a2,2,0,0,1,4,0Z"/>
    </g>
  </g>
  <g class="cls-12">
    <g id="Menu">
      <path id="Menu-2" class="cls-4" d="M355.73,100.34v-2h10v2Zm0-6v-2h16v2Zm0-6v-2h16v2Z"/>
      <rect id="Rectangle_1446" data-name="Rectangle 1446" class="cls-1" x="355.73" y="85.34" width="16" height="16"/>
    </g>
  </g>
  <g id="_3_PIGER_1_T-SHIRT" data-name=" 3 PIGER 1 T-SHIRT" class="cls-3">
    <g class="cls-3">
      <path class="cls-4" d="M166.76,54.3l2.13-.25a2,2,0,0,0,.54,1.24,1.55,1.55,0,0,0,2.23-.09,2,2,0,0,0,.46-1.39,1.89,1.89,0,0,0-.44-1.31,1.43,1.43,0,0,0-1.09-.48,3.8,3.8,0,0,0-1,.16l.24-1.79a1.86,1.86,0,0,0,1.36-.39,1.34,1.34,0,0,0,.47-1.09,1.17,1.17,0,0,0-1.26-1.26,1.34,1.34,0,0,0-1,.39,1.88,1.88,0,0,0-.48,1.14l-2-.34a4.5,4.5,0,0,1,.63-1.66,2.89,2.89,0,0,1,1.19-1,4,4,0,0,1,1.71-.36,3.39,3.39,0,0,1,2.59,1,2.66,2.66,0,0,1,.81,1.9,2.72,2.72,0,0,1-1.65,2.41,2.65,2.65,0,0,1,1.57.94,2.77,2.77,0,0,1,.59,1.78,3.46,3.46,0,0,1-1.1,2.57,3.82,3.82,0,0,1-2.74,1.06,3.76,3.76,0,0,1-2.58-.9A3.5,3.5,0,0,1,166.76,54.3Z"/>
      <path class="cls-4" d="M180.67,57.34V45.89h3.71a13.86,13.86,0,0,1,2.75.17,3,3,0,0,1,1.65,1.12,3.58,3.58,0,0,1,.66,2.23,3.81,3.81,0,0,1-.38,1.78,3.27,3.27,0,0,1-1,1.13,3.54,3.54,0,0,1-1.2.54,13.27,13.27,0,0,1-2.4.16H183v4.32ZM183,47.83v3.25h1.27a5.88,5.88,0,0,0,1.82-.18,1.58,1.58,0,0,0,.73-.56,1.6,1.6,0,0,0,.26-.89,1.47,1.47,0,0,0-.37-1,1.53,1.53,0,0,0-.93-.5,10,10,0,0,0-1.66-.08Z"/>
      <path class="cls-4" d="M191.27,57.34V45.89h2.31V57.34Z"/>
      <path class="cls-4" d="M201.11,53.13V51.2h5v4.57A6.38,6.38,0,0,1,204,57a7.6,7.6,0,0,1-2.79.54,6.28,6.28,0,0,1-3.13-.75,4.89,4.89,0,0,1-2-2.16,7,7,0,0,1-.67-3.05,6.61,6.61,0,0,1,.75-3.18,5,5,0,0,1,2.19-2.13,5.94,5.94,0,0,1,2.74-.57,5.46,5.46,0,0,1,3.34.89A4,4,0,0,1,206,49.06l-2.3.43a2.41,2.41,0,0,0-.91-1.33,2.71,2.71,0,0,0-1.67-.49,3.14,3.14,0,0,0-2.41,1,4.07,4.07,0,0,0-.89,2.85,4.46,4.46,0,0,0,.91,3.06,3,3,0,0,0,2.37,1,4,4,0,0,0,1.46-.28,5.13,5.13,0,0,0,1.25-.69V53.13Z"/>
      <path class="cls-4" d="M208.23,57.34V45.89h8.49v1.94h-6.18v2.54h5.75V52.3h-5.75v3.11h6.4v1.93Z"/>
      <path class="cls-4" d="M218.91,57.34V45.89h4.87a8.25,8.25,0,0,1,2.67.31,2.68,2.68,0,0,1,1.33,1.1,3.29,3.29,0,0,1,.5,1.8,3.09,3.09,0,0,1-.76,2.13,3.67,3.67,0,0,1-2.27,1.06,5.22,5.22,0,0,1,1.24,1,12.6,12.6,0,0,1,1.32,1.86l1.4,2.23h-2.77l-1.67-2.49a15.07,15.07,0,0,0-1.22-1.68,1.88,1.88,0,0,0-.69-.48,4.08,4.08,0,0,0-1.17-.13h-.47v4.78Zm2.31-6.61h1.71a8.54,8.54,0,0,0,2.08-.14,1.22,1.22,0,0,0,.65-.48,1.47,1.47,0,0,0,.23-.86,1.37,1.37,0,0,0-.3-.93,1.41,1.41,0,0,0-.88-.45c-.18,0-.75,0-1.68,0h-1.81Z"/>
      <path class="cls-4" d="M240,57.34h-2.2V49.07A7.43,7.43,0,0,1,235,50.73v-2a6.35,6.35,0,0,0,1.87-1.06,4.1,4.1,0,0,0,1.38-1.84H240Z"/>
      <path class="cls-4" d="M250.82,57.34V47.83h-3.39V45.89h9.1v1.94h-3.39v9.51Z"/>
      <path class="cls-4" d="M256.87,54.29v-2.2h4.31v2.2Z"/>
      <path class="cls-4" d="M261.88,53.62l2.25-.22a2.73,2.73,0,0,0,.82,1.66,2.49,2.49,0,0,0,1.68.53,2.55,2.55,0,0,0,1.68-.47,1.39,1.39,0,0,0,.57-1.1,1.06,1.06,0,0,0-.24-.7,1.93,1.93,0,0,0-.83-.49c-.27-.1-.89-.26-1.85-.5a6.43,6.43,0,0,1-2.61-1.13,3,3,0,0,1-.56-4,3.19,3.19,0,0,1,1.43-1.16,5.81,5.81,0,0,1,2.25-.39,4.85,4.85,0,0,1,3.25.94,3.29,3.29,0,0,1,1.14,2.52l-2.31.11a1.93,1.93,0,0,0-.64-1.27,2.29,2.29,0,0,0-1.46-.39,2.7,2.7,0,0,0-1.58.41.83.83,0,0,0-.37.71.89.89,0,0,0,.35.7,6.24,6.24,0,0,0,2.12.77,11.13,11.13,0,0,1,2.5.82,3.14,3.14,0,0,1,1.26,1.16,3.38,3.38,0,0,1,.46,1.83,3.39,3.39,0,0,1-2.09,3.12,6.48,6.48,0,0,1-2.49.42,5,5,0,0,1-3.34-1A4.33,4.33,0,0,1,261.88,53.62Z"/>
      <path class="cls-4" d="M273.14,57.34V45.89h2.32V50.4H280V45.89h2.31V57.34H280v-5h-4.53v5Z"/>
      <path class="cls-4" d="M284.62,57.34V45.89h2.31V57.34Z"/>
      <path class="cls-4" d="M289.14,57.34V45.89H294a8.25,8.25,0,0,1,2.67.31A2.64,2.64,0,0,1,298,47.3a3.29,3.29,0,0,1,.5,1.8,3,3,0,0,1-.76,2.13,3.65,3.65,0,0,1-2.26,1.06,5.43,5.43,0,0,1,1.24,1A13.56,13.56,0,0,1,298,55.11l1.4,2.23h-2.76L295,54.85a17.09,17.09,0,0,0-1.21-1.68,1.91,1.91,0,0,0-.7-.48,4,4,0,0,0-1.16-.13h-.47v4.78Zm2.32-6.61h1.71a8.54,8.54,0,0,0,2.08-.14,1.19,1.19,0,0,0,.64-.48,1.48,1.48,0,0,0,.24-.86,1.32,1.32,0,0,0-.31-.93,1.41,1.41,0,0,0-.87-.45c-.19,0-.75,0-1.69,0h-1.8Z"/>
      <path class="cls-4" d="M303.27,57.34V47.83h-3.4V45.89H309v1.94h-3.39v9.51Z"/>
    </g>
  </g>
  <g id="Color">
    <g id="FARVE" class="cls-3">
      <g class="cls-3">
        <path class="cls-6" d="M75.47,739.34v-7.15h4.9v1.21H76.91v1.69h3v1.21h-3v3Z"/>
        <path class="cls-6" d="M87.47,739.34H85.9l-.63-1.62H82.41l-.59,1.62H80.29l2.78-7.15H84.6Zm-2.66-2.83-1-2.65-1,2.65Z"/>
        <path class="cls-6" d="M88.24,739.34v-7.15h3a5.19,5.19,0,0,1,1.67.19,1.67,1.67,0,0,1,.83.68,2.06,2.06,0,0,1,.31,1.13,1.88,1.88,0,0,1-.47,1.33,2.26,2.26,0,0,1-1.41.66,3.51,3.51,0,0,1,.77.61A7.4,7.4,0,0,1,93.8,738l.88,1.39H93l-1-1.55a10.13,10.13,0,0,0-.76-1.06,1.13,1.13,0,0,0-.43-.29,2.25,2.25,0,0,0-.73-.08h-.29v3Zm1.45-4.13h1.06a5.35,5.35,0,0,0,1.3-.09.7.7,0,0,0,.41-.3.9.9,0,0,0,.15-.53.86.86,0,0,0-.2-.59.88.88,0,0,0-.54-.28c-.12,0-.47,0-1.06,0H89.69Z"/>
        <path class="cls-6" d="M97.1,739.34l-2.56-7.15h1.57l1.81,5.29,1.76-5.29h1.53l-2.56,7.15Z"/>
        <path class="cls-6" d="M102,739.34v-7.15h5.3v1.21h-3.86V735H107v1.21h-3.6v1.95h4v1.2Z"/>
      </g>
    </g>
    <path id="Rectangle_631" data-name="Rectangle 631" class="cls-13" d="M94.73,758.34h0a20,20,0,0,1,20,20h0a20,20,0,0,1-20,20h0a20,20,0,0,1-20-20h0A20,20,0,0,1,94.73,758.34Z"/>
    <path id="Path_650" data-name="Path 650" class="cls-14" d="M209.73,758.34a20,20,0,1,1-20,20A20,20,0,0,1,209.73,758.34Z"/>
    <path id="Rectangle_636" data-name="Rectangle 636" class="cls-15" d="M381.73,758.34h0a20,20,0,0,1,20,20h0a20,20,0,0,1-20,20h0a20,20,0,0,1-20-20h0A20,20,0,0,1,381.73,758.34Z"/>
    <path id="Path_649" data-name="Path 649" class="cls-6" d="M151.73,758.34a20,20,0,1,1-20,20A20,20,0,0,1,151.73,758.34Z"/>
    <path id="Path_652" data-name="Path 652" class="cls-16" d="M324.73,758.34a20,20,0,1,1-20,20A20,20,0,0,1,324.73,758.34Z"/>
    <path id="Path_651" data-name="Path 651" class="cls-17" d="M266.73,758.34a20,20,0,1,1-20,20A20,20,0,0,1,266.73,758.34Z"/>
  </g>
  <g id="Size">
    <g id="STØRRELSE" class="cls-3">
      <g class="cls-3">
        <path d="M76.09,624l1.41-.13a1.68,1.68,0,0,0,.51,1,1.57,1.57,0,0,0,1,.33,1.62,1.62,0,0,0,1-.29.89.89,0,0,0,.36-.7.64.64,0,0,0-.15-.43,1.25,1.25,0,0,0-.52-.31c-.17-.06-.56-.16-1.16-.31A3.91,3.91,0,0,1,77,622.5a1.85,1.85,0,0,1-.66-1.44,1.82,1.82,0,0,1,.31-1,2,2,0,0,1,.89-.73,3.7,3.7,0,0,1,1.41-.25,3,3,0,0,1,2,.59,2.11,2.11,0,0,1,.72,1.58l-1.45.06a1.2,1.2,0,0,0-.4-.79,1.45,1.45,0,0,0-.91-.24,1.69,1.69,0,0,0-1,.26.53.53,0,0,0-.23.44.54.54,0,0,0,.22.44,3.88,3.88,0,0,0,1.32.48,6.4,6.4,0,0,1,1.56.51,2,2,0,0,1,.8.73,2.14,2.14,0,0,1,.28,1.14,2.09,2.09,0,0,1-.34,1.15,2,2,0,0,1-1,.8,4.1,4.1,0,0,1-1.56.26,3.1,3.1,0,0,1-2.08-.63A2.76,2.76,0,0,1,76.09,624Z"/>
        <path d="M84.74,626.34V620.4H82.61v-1.21H88.3v1.21H86.18v5.94Z"/>
        <path d="M94.56,619.71l.77-.87.68.6-.82.92a3.19,3.19,0,0,1,.51,1.08,5,5,0,0,1,.18,1.36,3.72,3.72,0,0,1-.94,2.69,3.31,3.31,0,0,1-2.49,1,3.52,3.52,0,0,1-2.15-.61l-.79.88-.69-.6.83-.94a4.05,4.05,0,0,1-.71-2.48,3.71,3.71,0,0,1,.94-2.68,3.34,3.34,0,0,1,2.51-1A3.52,3.52,0,0,1,94.56,619.71Zm-.9,1a2,2,0,0,0-2.69.2,2.71,2.71,0,0,0-.54,1.84,3.53,3.53,0,0,0,.22,1.33Zm.53.77-3,3.37a1.74,1.74,0,0,0,1.21.44,1.82,1.82,0,0,0,1.43-.63,2.76,2.76,0,0,0,.56-1.88A3.7,3.7,0,0,0,94.19,621.48Z"/>
        <path d="M97,626.34v-7.15h3a5.19,5.19,0,0,1,1.67.19,1.67,1.67,0,0,1,.83.68,2.06,2.06,0,0,1,.31,1.13,1.88,1.88,0,0,1-.47,1.33,2.29,2.29,0,0,1-1.42.66,3.58,3.58,0,0,1,.78.61,7.4,7.4,0,0,1,.82,1.16l.87,1.39h-1.72l-1-1.55a10.13,10.13,0,0,0-.76-1.06,1.09,1.09,0,0,0-.44-.29,2.15,2.15,0,0,0-.72-.08h-.3v3Zm1.44-4.13h1.07a5.35,5.35,0,0,0,1.3-.09.73.73,0,0,0,.41-.3,1,1,0,0,0,.14-.53.85.85,0,0,0-.19-.59.88.88,0,0,0-.54-.28c-.12,0-.47,0-1.06,0H98.46Z"/>
        <path d="M104.24,626.34v-7.15h3a5.19,5.19,0,0,1,1.67.19,1.67,1.67,0,0,1,.83.68,2.06,2.06,0,0,1,.31,1.13,1.88,1.88,0,0,1-.47,1.33,2.26,2.26,0,0,1-1.41.66,3.51,3.51,0,0,1,.77.61,7.4,7.4,0,0,1,.82,1.16l.88,1.39H109l-1-1.55a10.13,10.13,0,0,0-.76-1.06,1.13,1.13,0,0,0-.43-.29,2.25,2.25,0,0,0-.73-.08h-.29v3Zm1.45-4.13h1.06a5.35,5.35,0,0,0,1.3-.09.7.7,0,0,0,.41-.3.9.9,0,0,0,.15-.53.86.86,0,0,0-.2-.59.88.88,0,0,0-.54-.28c-.12,0-.47,0-1.06,0h-1.12Z"/>
        <path d="M111.46,626.34v-7.15h5.3v1.21H112.9V622h3.6v1.21h-3.6v1.95h4v1.2Z"/>
        <path d="M118.17,626.34v-7.1h1.44v5.9h3.6v1.2Z"/>
        <path d="M123.87,624l1.41-.13a1.68,1.68,0,0,0,.51,1,1.57,1.57,0,0,0,1,.33,1.66,1.66,0,0,0,1-.29.87.87,0,0,0,.35-.7.69.69,0,0,0-.14-.43,1.25,1.25,0,0,0-.52-.31c-.17-.06-.56-.16-1.16-.31a3.84,3.84,0,0,1-1.63-.71,1.85,1.85,0,0,1-.66-1.44,1.82,1.82,0,0,1,.31-1,1.91,1.91,0,0,1,.89-.73,3.7,3.7,0,0,1,1.41-.25,3,3,0,0,1,2,.59,2.1,2.1,0,0,1,.71,1.58l-1.44.06a1.24,1.24,0,0,0-.4-.79,1.45,1.45,0,0,0-.91-.24,1.69,1.69,0,0,0-1,.26.53.53,0,0,0-.23.44.56.56,0,0,0,.21.44,4.06,4.06,0,0,0,1.33.48,6.4,6.4,0,0,1,1.56.51,2,2,0,0,1,.79.73,2.14,2.14,0,0,1,.29,1.14,2.09,2.09,0,0,1-.34,1.15,2,2,0,0,1-1,.8,4.13,4.13,0,0,1-1.56.26,3.08,3.08,0,0,1-2.08-.63A2.68,2.68,0,0,1,123.87,624Z"/>
        <path d="M130.91,626.34v-7.15h5.3v1.21h-3.86V622h3.59v1.21h-3.59v1.95h4v1.2Z"/>
      </g>
    </g>
    <g id="Tab">
      <rect id="Rectangle_626" data-name="Rectangle 626" class="cls-18" x="75.73" y="645.34" width="53" height="40" rx="4"/>
      <g id="XS" class="cls-3">
        <g class="cls-3">
          <path class="cls-8" d="M92.45,670.34l3.88-5.22-3.42-4.8h1.58l1.82,2.57q.57.81.81,1.23a12.51,12.51,0,0,1,.79-1.14l2-2.66h1.45l-3.52,4.73,3.79,5.29H100l-2.52-3.57c-.14-.21-.29-.43-.44-.67q-.33.54-.48.75l-2.51,3.49Z"/>
          <path class="cls-8" d="M102.36,667.12l1.25-.11a2.84,2.84,0,0,0,.41,1.24,2.34,2.34,0,0,0,1,.78,3.81,3.81,0,0,0,1.54.3,3.69,3.69,0,0,0,1.34-.23,1.85,1.85,0,0,0,.86-.62,1.44,1.44,0,0,0,.29-.86,1.26,1.26,0,0,0-.28-.82,2,2,0,0,0-.9-.59,15.9,15.9,0,0,0-1.78-.49,8.88,8.88,0,0,1-1.94-.63,2.74,2.74,0,0,1-1.07-.93,2.33,2.33,0,0,1-.35-1.25,2.54,2.54,0,0,1,.43-1.42,2.7,2.7,0,0,1,1.26-1,4.9,4.9,0,0,1,1.84-.34,5,5,0,0,1,2,.36,2.78,2.78,0,0,1,1.31,1.06,3,3,0,0,1,.5,1.58l-1.28.09a2,2,0,0,0-.69-1.43,2.67,2.67,0,0,0-1.75-.49,2.83,2.83,0,0,0-1.75.44,1.31,1.31,0,0,0-.55,1.06,1.14,1.14,0,0,0,.39.89,5.25,5.25,0,0,0,2,.72,12.11,12.11,0,0,1,2.22.64,3,3,0,0,1,1.29,1,2.47,2.47,0,0,1,.42,1.42,2.76,2.76,0,0,1-.46,1.51,3.06,3.06,0,0,1-1.32,1.1,4.59,4.59,0,0,1-1.93.39,5.83,5.83,0,0,1-2.28-.39,3.25,3.25,0,0,1-1.44-1.19A3.44,3.44,0,0,1,102.36,667.12Z"/>
        </g>
      </g>
    </g>
    <g id="Tab-2">
      <rect id="Rectangle_627" data-name="Rectangle 627" class="cls-19" x="144.73" y="645.34" width="53" height="40" rx="4"/>
      <g id="S" class="cls-3">
        <g class="cls-3">
          <path class="cls-18" d="M166.69,667.12l1.25-.11a2.84,2.84,0,0,0,.41,1.24,2.34,2.34,0,0,0,1,.78,3.81,3.81,0,0,0,1.54.3,3.69,3.69,0,0,0,1.34-.23,1.88,1.88,0,0,0,.87-.62,1.5,1.5,0,0,0,.28-.86,1.3,1.3,0,0,0-.27-.82,2.05,2.05,0,0,0-.91-.59,15.9,15.9,0,0,0-1.78-.49,8.88,8.88,0,0,1-1.94-.63,2.81,2.81,0,0,1-1.07-.93,2.33,2.33,0,0,1-.35-1.25,2.62,2.62,0,0,1,.43-1.42,2.7,2.7,0,0,1,1.26-1,4.94,4.94,0,0,1,1.84-.34,5.05,5.05,0,0,1,2,.36,2.8,2.8,0,0,1,1.3,1.06,3,3,0,0,1,.5,1.58l-1.28.09a2,2,0,0,0-.69-1.43,2.67,2.67,0,0,0-1.75-.49,2.83,2.83,0,0,0-1.75.44,1.31,1.31,0,0,0-.55,1.06,1.14,1.14,0,0,0,.39.89,5.25,5.25,0,0,0,2,.72,12.11,12.11,0,0,1,2.22.64,3,3,0,0,1,1.29,1,2.47,2.47,0,0,1,.42,1.42,2.76,2.76,0,0,1-.46,1.51,3.06,3.06,0,0,1-1.32,1.1,4.59,4.59,0,0,1-1.93.39,5.87,5.87,0,0,1-2.28-.39,3.25,3.25,0,0,1-1.44-1.19A3.44,3.44,0,0,1,166.69,667.12Z"/>
        </g>
      </g>
    </g>
    <g id="Tab-3">
      <rect id="Rectangle_628" data-name="Rectangle 628" class="cls-19" x="213.73" y="645.34" width="53" height="40" rx="4"/>
      <g id="M" class="cls-3">
        <g class="cls-3">
          <path class="cls-18" d="M234.94,670.34v-10h2l2.38,7.1c.21.66.37,1.15.47,1.48l.54-1.61,2.4-7h1.78v10h-1.28V662l-2.91,8.38h-1.2l-2.89-8.53v8.53Z"/>
        </g>
      </g>
    </g>
    <g id="Tab-4">
      <rect id="Rectangle_629" data-name="Rectangle 629" class="cls-19" x="281.73" y="645.34" width="53" height="40" rx="4"/>
      <g id="L" class="cls-3">
        <g class="cls-3">
          <path class="cls-18" d="M305.86,670.34v-10h1.33v8.84h4.93v1.18Z"/>
        </g>
      </g>
    </g>
    <g id="Tab-5">
      <rect id="Rectangle_630" data-name="Rectangle 630" class="cls-19" x="349.73" y="645.34" width="53" height="40" rx="4"/>
      <g id="XL" class="cls-3">
        <g class="cls-3">
          <path class="cls-18" d="M368.23,670.34l3.88-5.22-3.42-4.8h1.58l1.81,2.57q.57.81.81,1.23c.22-.36.49-.74.79-1.14l2-2.66h1.44l-3.52,4.73,3.8,5.29h-1.64l-2.53-3.57-.43-.67-.48.75-2.52,3.49Z"/>
          <path class="cls-18" d="M378.53,670.34v-10h1.33v8.84h4.93v1.18Z"/>
        </g>
      </g>
    </g>
  </g>
  <g id="Continue">
    <path id="Path_644" data-name="Path 644" d="M58.73,843.34h358a4,4,0,0,1,4,4v40a4,4,0,0,1-4,4h-358a4,4,0,0,1-4-4v-40A4,4,0,0,1,58.73,843.34Z"/>
    <g id="TILFØJ_TIL_KURV" data-name="TILFØJ TIL KURV" class="cls-3">
      <g class="cls-3">
        <path class="cls-8" d="M183.93,871.34V863h-3v-1.7h8V863h-3v8.32Z"/>
        <path class="cls-8" d="M190.16,871.34v-10h2v10Z"/>
        <path class="cls-8" d="M194.17,871.34V861.4h2v8.26h5v1.68Z"/>
        <path class="cls-8" d="M202.68,871.34v-10h6.87V863H204.7v2.37h4.18v1.69H204.7v4.26Z"/>
        <path class="cls-8" d="M218.67,862.05l1.08-1.21.95.84L219.55,863a4.56,4.56,0,0,1,.72,1.52,7.35,7.35,0,0,1,.25,1.91,5.17,5.17,0,0,1-1.32,3.75,4.59,4.59,0,0,1-3.49,1.37,4.83,4.83,0,0,1-3-.85l-1.11,1.24-1-.84,1.17-1.32a5.58,5.58,0,0,1-1-3.47,5.16,5.16,0,0,1,1.32-3.74,4.64,4.64,0,0,1,3.52-1.38A4.93,4.93,0,0,1,218.67,862.05Zm-1.26,1.41a2.61,2.61,0,0,0-1.75-.59,2.57,2.57,0,0,0-2,.86,3.8,3.8,0,0,0-.77,2.59,5,5,0,0,0,.32,1.86Zm.74,1.08-4.2,4.72a2.47,2.47,0,0,0,1.69.61,2.53,2.53,0,0,0,2-.88,3.81,3.81,0,0,0,.79-2.63A4.94,4.94,0,0,0,218.15,864.54Z"/>
        <path class="cls-8" d="M225.72,861.32h2v6.35a6.31,6.31,0,0,1-.22,1.91,2.7,2.7,0,0,1-1.07,1.4,3.46,3.46,0,0,1-2,.53,3,3,0,0,1-2.29-.83,3.37,3.37,0,0,1-.8-2.43l1.9-.22a2.73,2.73,0,0,0,.26,1.22,1.08,1.08,0,0,0,1,.54,1.1,1.1,0,0,0,1-.39,3,3,0,0,0,.28-1.6Z"/>
        <path class="cls-8" d="M236,871.34V863h-3v-1.7h8V863h-3v8.32Z"/>
        <path class="cls-8" d="M242.27,871.34v-10h2v10Z"/>
        <path class="cls-8" d="M246.28,871.34V861.4h2v8.26h5v1.68Z"/>
        <path class="cls-8" d="M258.44,871.34v-10h2v4.45l4.09-4.45h2.72l-3.77,3.91,4,6.11h-2.61l-2.76-4.7-1.64,1.68v3Z"/>
        <path class="cls-8" d="M268.51,861.32h2v5.43a10.92,10.92,0,0,0,.08,1.67,1.62,1.62,0,0,0,.61,1,2.18,2.18,0,0,0,1.34.38,2,2,0,0,0,1.3-.36,1.39,1.39,0,0,0,.53-.86,11.46,11.46,0,0,0,.08-1.7v-5.55h2v5.27a13.39,13.39,0,0,1-.17,2.55,2.86,2.86,0,0,1-.6,1.25,2.94,2.94,0,0,1-1.18.82,5.17,5.17,0,0,1-1.93.3,5.54,5.54,0,0,1-2.17-.33,3.14,3.14,0,0,1-1.18-.86,2.78,2.78,0,0,1-.56-1.11,11.58,11.58,0,0,1-.2-2.54Z"/>
        <path class="cls-8" d="M278.64,871.34v-10h4.26a7.24,7.24,0,0,1,2.33.27,2.29,2.29,0,0,1,1.17,1,2.9,2.9,0,0,1,.43,1.58,2.68,2.68,0,0,1-.66,1.86,3.19,3.19,0,0,1-2,.93,4.82,4.82,0,0,1,1.08.84,11.09,11.09,0,0,1,1.15,1.63l1.23,2h-2.42l-1.46-2.18a13.7,13.7,0,0,0-1.07-1.47,1.68,1.68,0,0,0-.61-.42,3.5,3.5,0,0,0-1-.11h-.41v4.18Zm2-5.78h1.5a7.94,7.94,0,0,0,1.82-.12,1.05,1.05,0,0,0,.56-.43,1.28,1.28,0,0,0,.21-.75,1.17,1.17,0,0,0-.27-.81,1.28,1.28,0,0,0-.76-.4c-.17,0-.66,0-1.48,0h-1.58Z"/>
        <path class="cls-8" d="M291,871.34l-3.58-10h2.2l2.53,7.42,2.46-7.42h2.14l-3.58,10Z"/>
      </g>
    </g>
  </g>
  <g id="Skynd_dig_Få_tilbage_på_lager_" data-name="Skynd dig Få tilbage på lager " class="cls-3">
    <g class="cls-3">
      <path class="cls-4" d="M130.45,136.66l1.43-.12a3.18,3.18,0,0,0,.47,1.41,2.6,2.6,0,0,0,1.15.89,4.32,4.32,0,0,0,1.76.34,4.23,4.23,0,0,0,1.53-.26,2.15,2.15,0,0,0,1-.71,1.58,1.58,0,0,0,.32-1,1.5,1.5,0,0,0-.31-.94,2.28,2.28,0,0,0-1-.67,19.68,19.68,0,0,0-2-.56,9.87,9.87,0,0,1-2.21-.72,3.05,3.05,0,0,1-1.22-1.06,2.61,2.61,0,0,1-.4-1.43,2.88,2.88,0,0,1,.49-1.62,3.07,3.07,0,0,1,1.44-1.14,5.46,5.46,0,0,1,2.1-.39,5.6,5.6,0,0,1,2.24.41,3.22,3.22,0,0,1,1.5,1.2,3.42,3.42,0,0,1,.56,1.81l-1.45.11a2.34,2.34,0,0,0-.79-1.64,3.1,3.1,0,0,0-2-.56,3.14,3.14,0,0,0-2,.51,1.5,1.5,0,0,0-.63,1.21,1.34,1.34,0,0,0,.44,1,6.23,6.23,0,0,0,2.29.81,15.1,15.1,0,0,1,2.53.73,3.51,3.51,0,0,1,1.48,1.17,2.84,2.84,0,0,1,.48,1.63,3.11,3.11,0,0,1-.53,1.72,3.46,3.46,0,0,1-1.5,1.26,5.26,5.26,0,0,1-2.21.45,6.59,6.59,0,0,1-2.6-.45,3.71,3.71,0,0,1-1.65-1.37A3.82,3.82,0,0,1,130.45,136.66Z"/>
      <path class="cls-4" d="M141.46,140.34V128.89h1.41v6.53l3.33-3.37H148l-3.17,3.07,3.49,5.22H146.6l-2.74-4.24-1,1v3.29Z"/>
      <path class="cls-4" d="M149.39,143.54l-.15-1.32a3.17,3.17,0,0,0,.8.12,1.61,1.61,0,0,0,.75-.15,1.29,1.29,0,0,0,.46-.44,6.89,6.89,0,0,0,.43-1.05l.13-.34-3.15-8.31h1.51l1.73,4.8c.22.61.43,1.25.6,1.92.16-.64.36-1.27.58-1.89l1.77-4.83h1.41l-3.16,8.43a16.89,16.89,0,0,1-.78,1.89,2.87,2.87,0,0,1-.86,1,2.1,2.1,0,0,1-1.16.32A3,3,0,0,1,149.39,143.54Z"/>
      <path class="cls-4" d="M157.46,140.34v-8.29h1.26v1.18a3,3,0,0,1,2.64-1.37,3.47,3.47,0,0,1,1.38.27,2.11,2.11,0,0,1,.94.71,2.58,2.58,0,0,1,.44,1,8.13,8.13,0,0,1,.08,1.36v5.1h-1.41v-5a3.82,3.82,0,0,0-.16-1.29,1.41,1.41,0,0,0-.58-.68,1.86,1.86,0,0,0-1-.25,2.31,2.31,0,0,0-1.56.57,2.83,2.83,0,0,0-.65,2.16v4.53Z"/>
      <path class="cls-4" d="M171.74,140.34v-1a2.59,2.59,0,0,1-2.32,1.23,3.25,3.25,0,0,1-1.83-.55,3.64,3.64,0,0,1-1.29-1.52,5.4,5.4,0,0,1-.45-2.26,5.82,5.82,0,0,1,.41-2.25,3.27,3.27,0,0,1,1.24-1.55,3.31,3.31,0,0,1,1.85-.54,2.78,2.78,0,0,1,2.29,1.14v-4.11H173v11.45Zm-4.45-4.14a3.66,3.66,0,0,0,.67,2.39,2.06,2.06,0,0,0,1.59.79,2,2,0,0,0,1.57-.76,3.47,3.47,0,0,0,.64-2.3,3.87,3.87,0,0,0-.66-2.5,2,2,0,0,0-1.61-.8,2,2,0,0,0-1.57.77A3.76,3.76,0,0,0,167.29,136.2Z"/>
      <path class="cls-4" d="M185.08,140.34v-1a2.59,2.59,0,0,1-2.32,1.23,3.19,3.19,0,0,1-1.82-.55,3.5,3.5,0,0,1-1.29-1.52,5.25,5.25,0,0,1-.46-2.26,6,6,0,0,1,.41-2.25,3.23,3.23,0,0,1,1.25-1.55,3.31,3.31,0,0,1,1.85-.54,2.65,2.65,0,0,1,1.33.32,2.83,2.83,0,0,1,1,.82v-4.11h1.4v11.45Zm-4.44-4.14a3.61,3.61,0,0,0,.67,2.39,2,2,0,0,0,1.58.79,2,2,0,0,0,1.57-.76,3.47,3.47,0,0,0,.64-2.3,3.88,3.88,0,0,0-.65-2.5,2,2,0,0,0-1.62-.8,2,2,0,0,0-1.57.77A3.82,3.82,0,0,0,180.64,136.2Z"/>
      <path class="cls-4" d="M188.6,130.51v-1.62H190v1.62Zm0,9.83v-8.29H190v8.29Z"/>
      <path class="cls-4" d="M191.89,141l1.37.2a1.33,1.33,0,0,0,.48.93,2.34,2.34,0,0,0,1.43.39,2.48,2.48,0,0,0,1.5-.39,1.88,1.88,0,0,0,.72-1.1,8.57,8.57,0,0,0,.11-1.8,2.91,2.91,0,0,1-2.3,1.08,3.13,3.13,0,0,1-2.65-1.23,4.72,4.72,0,0,1-.94-3A5.63,5.63,0,0,1,192,134a3.4,3.4,0,0,1,1.25-1.55,3.31,3.31,0,0,1,1.92-.55,3,3,0,0,1,2.42,1.19v-1h1.29v7.17a6.81,6.81,0,0,1-.39,2.74,2.86,2.86,0,0,1-1.25,1.28,4.36,4.36,0,0,1-2.11.47,3.93,3.93,0,0,1-2.39-.67A2.25,2.25,0,0,1,191.89,141Zm1.17-5a3.55,3.55,0,0,0,.65,2.38,2,2,0,0,0,1.62.75,2.08,2.08,0,0,0,1.63-.75,3.5,3.5,0,0,0,.65-2.34,3.38,3.38,0,0,0-.67-2.29,2.09,2.09,0,0,0-1.63-.78,2,2,0,0,0-1.6.77A3.4,3.4,0,0,0,193.06,136.05Z"/>
      <path class="cls-4" d="M201.8,137.5l-.43-6.07v-2.54h1.74v2.54l-.4,6.07Zm-.37,2.84v-1.6h1.62v1.6Z"/>
      <path class="cls-4" d="M210.2,140.34V128.89h7.72v1.35h-6.21v3.55h5.38v1.35h-5.38v5.2Z"/>
      <path class="cls-4" d="M225.13,139.32a5.16,5.16,0,0,1-1.51.94,4.39,4.39,0,0,1-1.55.27,3,3,0,0,1-2.1-.67,2.18,2.18,0,0,1-.73-1.7,2.35,2.35,0,0,1,.27-1.12,2.48,2.48,0,0,1,.73-.81,3.72,3.72,0,0,1,1-.46,11.68,11.68,0,0,1,1.25-.21,12.35,12.35,0,0,0,2.51-.48c0-.19,0-.32,0-.37a1.53,1.53,0,0,0-.4-1.21A2.34,2.34,0,0,0,223,133a2.53,2.53,0,0,0-1.47.35,2.19,2.19,0,0,0-.7,1.23l-1.37-.19a3.31,3.31,0,0,1,.62-1.42,2.73,2.73,0,0,1,1.24-.84,5.67,5.67,0,0,1,1.88-.29,4.91,4.91,0,0,1,1.73.25,2.27,2.27,0,0,1,1,.63,2.13,2.13,0,0,1,.44,1,7.45,7.45,0,0,1,.07,1.29v1.88a20,20,0,0,0,.09,2.48,3,3,0,0,0,.36,1h-1.47A2.83,2.83,0,0,1,225.13,139.32Zm-.12-3.14a10,10,0,0,1-2.3.53,5.41,5.41,0,0,0-1.22.28,1.28,1.28,0,0,0-.56.46,1.25,1.25,0,0,0,.23,1.6,1.85,1.85,0,0,0,1.25.38,2.85,2.85,0,0,0,1.44-.36,2.08,2.08,0,0,0,.93-1,3.22,3.22,0,0,0,.23-1.4Zm-3.36-6.29a1.32,1.32,0,0,1,.42-1,1.38,1.38,0,0,1,2,0,1.43,1.43,0,0,1-1,2.44,1.33,1.33,0,0,1-1-.42A1.39,1.39,0,0,1,221.65,129.89Zm.6,0a.88.88,0,0,0,.24.62.81.81,0,0,0,1.17,0,.88.88,0,0,0,0-1.21.82.82,0,0,0-.59-.25.79.79,0,0,0-.58.25A.81.81,0,0,0,222.25,129.9Z"/>
      <path class="cls-4" d="M236.13,139.09l.2,1.24a5.37,5.37,0,0,1-1.06.12,2.43,2.43,0,0,1-1.19-.24,1.3,1.3,0,0,1-.59-.64,4.86,4.86,0,0,1-.17-1.66v-4.77h-1v-1.09h1V130l1.39-.84v2.9h1.42v1.09h-1.42V138a2.45,2.45,0,0,0,.08.78.62.62,0,0,0,.24.27.9.9,0,0,0,.48.1A5.81,5.81,0,0,0,236.13,139.09Z"/>
      <path class="cls-4" d="M237.51,130.51v-1.62h1.41v1.62Zm0,9.83v-8.29h1.41v8.29Z"/>
      <path class="cls-4" d="M241,140.34V128.89h1.4v11.45Z"/>
      <path class="cls-4" d="M245.91,140.34H244.6V128.89H246V133a2.76,2.76,0,0,1,2.27-1.12,3.4,3.4,0,0,1,1.45.31,2.87,2.87,0,0,1,1.13.87,4.34,4.34,0,0,1,.69,1.34,5.48,5.48,0,0,1,.25,1.69,4.77,4.77,0,0,1-1.05,3.3,3.33,3.33,0,0,1-2.54,1.16,2.63,2.63,0,0,1-2.3-1.23Zm0-4.21a4.3,4.3,0,0,0,.41,2.16,2,2,0,0,0,3.39.28,3.6,3.6,0,0,0,.67-2.38,3.68,3.68,0,0,0-.64-2.4,2,2,0,0,0-1.56-.77,2,2,0,0,0-1.59.8A3.48,3.48,0,0,0,245.89,136.13Z"/>
      <path class="cls-4" d="M258.92,139.32a5.26,5.26,0,0,1-1.5.94,4.39,4.39,0,0,1-1.55.27,3,3,0,0,1-2.1-.67,2.19,2.19,0,0,1-.74-1.7,2.35,2.35,0,0,1,.28-1.12,2.48,2.48,0,0,1,.73-.81,3.59,3.59,0,0,1,1-.46,11.25,11.25,0,0,1,1.25-.21,12.35,12.35,0,0,0,2.51-.48c0-.19,0-.32,0-.37a1.57,1.57,0,0,0-.4-1.21,2.35,2.35,0,0,0-1.6-.48,2.51,2.51,0,0,0-1.47.35,2.13,2.13,0,0,0-.7,1.23l-1.37-.19a3.43,3.43,0,0,1,.61-1.42,2.76,2.76,0,0,1,1.25-.84,5.63,5.63,0,0,1,1.88-.29,5,5,0,0,1,1.73.25,2.33,2.33,0,0,1,1,.63,2.13,2.13,0,0,1,.44,1,7.45,7.45,0,0,1,.07,1.29v1.88a20,20,0,0,0,.09,2.48,3.25,3.25,0,0,0,.35,1h-1.46A3.05,3.05,0,0,1,258.92,139.32Zm-.11-3.14a10,10,0,0,1-2.3.53,5.39,5.39,0,0,0-1.23.28,1.25,1.25,0,0,0-.55.46,1.22,1.22,0,0,0,.23,1.6,1.83,1.83,0,0,0,1.25.38,2.85,2.85,0,0,0,1.44-.36,2.18,2.18,0,0,0,.93-1,3.38,3.38,0,0,0,.23-1.4Z"/>
      <path class="cls-4" d="M262.15,141l1.37.2a1.3,1.3,0,0,0,.48.93,2.3,2.3,0,0,0,1.42.39,2.49,2.49,0,0,0,1.51-.39,1.88,1.88,0,0,0,.72-1.1,8.82,8.82,0,0,0,.1-1.8,2.89,2.89,0,0,1-2.29,1.08,3.13,3.13,0,0,1-2.65-1.23,4.72,4.72,0,0,1-.94-3,5.45,5.45,0,0,1,.43-2.19,3.4,3.4,0,0,1,1.25-1.55,3.3,3.3,0,0,1,1.91-.55,3,3,0,0,1,2.43,1.19v-1h1.29v7.17a6.81,6.81,0,0,1-.39,2.74,2.86,2.86,0,0,1-1.25,1.28,4.36,4.36,0,0,1-2.11.47A3.94,3.94,0,0,1,263,143,2.24,2.24,0,0,1,262.15,141Zm1.17-5a3.6,3.6,0,0,0,.64,2.38,2.14,2.14,0,0,0,3.25,0,3.44,3.44,0,0,0,.66-2.34,3.39,3.39,0,0,0-.68-2.29,2.07,2.07,0,0,0-1.62-.78,2,2,0,0,0-1.6.77A3.35,3.35,0,0,0,263.32,136.05Z"/>
      <path class="cls-4" d="M277,137.67l1.45.18a3.55,3.55,0,0,1-1.27,2,3.82,3.82,0,0,1-2.38.7,3.77,3.77,0,0,1-2.88-1.12,4.35,4.35,0,0,1-1.07-3.14,4.57,4.57,0,0,1,1.08-3.25,3.65,3.65,0,0,1,2.79-1.16,3.56,3.56,0,0,1,2.72,1.13,4.49,4.49,0,0,1,1.06,3.19c0,.08,0,.21,0,.37h-6.19a3.16,3.16,0,0,0,.78,2.1,2.31,2.31,0,0,0,1.73.73,2.14,2.14,0,0,0,1.32-.41A2.75,2.75,0,0,0,277,137.67Zm-4.62-2.27H277a2.8,2.8,0,0,0-.53-1.57,2.16,2.16,0,0,0-1.74-.81,2.23,2.23,0,0,0-1.63.64A2.6,2.6,0,0,0,272.37,135.4Z"/>
      <path class="cls-4" d="M284.65,143.52V132.05h1.28v1.07a3.13,3.13,0,0,1,1-.94,2.71,2.71,0,0,1,1.38-.32,3.22,3.22,0,0,1,1.87.55,3.32,3.32,0,0,1,1.23,1.54,5.53,5.53,0,0,1,.41,2.18,5.65,5.65,0,0,1-.45,2.3,3.47,3.47,0,0,1-1.33,1.56,3.42,3.42,0,0,1-1.83.54,2.78,2.78,0,0,1-2.18-1.05v4Zm1.27-7.28a3.63,3.63,0,0,0,.65,2.37,2,2,0,0,0,1.57.77,2,2,0,0,0,1.61-.8,3.8,3.8,0,0,0,.67-2.46,3.64,3.64,0,0,0-.66-2.37,1.94,1.94,0,0,0-1.55-.79,2,2,0,0,0-1.59.84A3.75,3.75,0,0,0,285.92,136.24Z"/>
      <path class="cls-4" d="M299,139.32a5.26,5.26,0,0,1-1.5.94,4.39,4.39,0,0,1-1.55.27,3,3,0,0,1-2.1-.67,2.19,2.19,0,0,1-.74-1.7,2.35,2.35,0,0,1,.28-1.12,2.48,2.48,0,0,1,.73-.81,3.59,3.59,0,0,1,1-.46,11.25,11.25,0,0,1,1.25-.21,12.5,12.5,0,0,0,2.51-.48v-.37a1.57,1.57,0,0,0-.39-1.21,2.36,2.36,0,0,0-1.61-.48,2.49,2.49,0,0,0-1.46.35,2.08,2.08,0,0,0-.7,1.23l-1.37-.19a3.43,3.43,0,0,1,.61-1.42,2.78,2.78,0,0,1,1.24-.84,5.73,5.73,0,0,1,1.89-.29,4.85,4.85,0,0,1,1.72.25,2.31,2.31,0,0,1,1,.63,2.13,2.13,0,0,1,.44,1,7.45,7.45,0,0,1,.07,1.29v1.88a20,20,0,0,0,.09,2.48,3.25,3.25,0,0,0,.35,1h-1.46A3.05,3.05,0,0,1,299,139.32Zm-.11-3.14a10,10,0,0,1-2.3.53,5.39,5.39,0,0,0-1.23.28,1.25,1.25,0,0,0-.55.46,1.2,1.2,0,0,0-.2.67,1.17,1.17,0,0,0,.43.93,1.83,1.83,0,0,0,1.25.38,2.85,2.85,0,0,0,1.44-.36,2.18,2.18,0,0,0,.93-1,3.38,3.38,0,0,0,.23-1.4Zm-3.36-6.29a1.44,1.44,0,0,1,1.4-1.4,1.36,1.36,0,0,1,1,.42,1.46,1.46,0,0,1,0,2,1.38,1.38,0,0,1-1,.41,1.36,1.36,0,0,1-1-.42A1.38,1.38,0,0,1,295.49,129.89Zm.59,0a.84.84,0,0,0,.25.62.8.8,0,0,0,1.16,0,.82.82,0,0,0,.25-.61.85.85,0,0,0-.24-.6.83.83,0,0,0-.59-.25.85.85,0,0,0-.83.84Z"/>
      <path class="cls-4" d="M306.86,140.34V128.89h1.41v11.45Z"/>
      <path class="cls-4" d="M315.86,139.32a5.26,5.26,0,0,1-1.5.94,4.39,4.39,0,0,1-1.55.27,3,3,0,0,1-2.1-.67,2.19,2.19,0,0,1-.74-1.7,2.24,2.24,0,0,1,.28-1.12,2.37,2.37,0,0,1,.73-.81,3.59,3.59,0,0,1,1-.46,10.84,10.84,0,0,1,1.25-.21,12.5,12.5,0,0,0,2.51-.48v-.37a1.53,1.53,0,0,0-.4-1.21,2.32,2.32,0,0,0-1.6-.48,2.47,2.47,0,0,0-1.46.35,2.08,2.08,0,0,0-.7,1.23l-1.38-.19a3.44,3.44,0,0,1,.62-1.42,2.78,2.78,0,0,1,1.24-.84,5.73,5.73,0,0,1,1.89-.29,4.89,4.89,0,0,1,1.72.25,2.38,2.38,0,0,1,1,.63,2.25,2.25,0,0,1,.44,1,8.66,8.66,0,0,1,.07,1.29v1.88a20,20,0,0,0,.09,2.48,3.25,3.25,0,0,0,.35,1h-1.47A3.05,3.05,0,0,1,315.86,139.32Zm-.11-3.14a10.09,10.09,0,0,1-2.3.53,5.39,5.39,0,0,0-1.23.28,1.25,1.25,0,0,0-.55.46,1.2,1.2,0,0,0-.2.67,1.17,1.17,0,0,0,.43.93,1.82,1.82,0,0,0,1.24.38,2.86,2.86,0,0,0,1.45-.36,2.18,2.18,0,0,0,.93-1,3.38,3.38,0,0,0,.23-1.4Z"/>
      <path class="cls-4" d="M319.09,141l1.37.2a1.29,1.29,0,0,0,.47.93,2.36,2.36,0,0,0,1.43.39,2.51,2.51,0,0,0,1.51-.39,2,2,0,0,0,.72-1.1,8.82,8.82,0,0,0,.1-1.8,2.89,2.89,0,0,1-2.3,1.08,3.11,3.11,0,0,1-2.64-1.23,4.72,4.72,0,0,1-.94-3,5.45,5.45,0,0,1,.43-2.19,3.28,3.28,0,0,1,3.16-2.1,2.94,2.94,0,0,1,2.42,1.19v-1h1.3v7.17a6.81,6.81,0,0,1-.39,2.74,2.91,2.91,0,0,1-1.25,1.28,4.39,4.39,0,0,1-2.11.47A3.94,3.94,0,0,1,320,143,2.24,2.24,0,0,1,319.09,141Zm1.16-5a3.6,3.6,0,0,0,.65,2.38,2.14,2.14,0,0,0,3.25,0,3.44,3.44,0,0,0,.66-2.34,3.39,3.39,0,0,0-.68-2.29,2.08,2.08,0,0,0-1.63-.78,2,2,0,0,0-1.59.77A3.35,3.35,0,0,0,320.25,136.05Z"/>
      <path class="cls-4" d="M333.92,137.67l1.46.18a3.57,3.57,0,0,1-1.28,2,4.32,4.32,0,0,1-5.26-.42,4.39,4.39,0,0,1-1.06-3.14,4.61,4.61,0,0,1,1.07-3.25,3.67,3.67,0,0,1,2.8-1.16,3.56,3.56,0,0,1,2.72,1.13,4.53,4.53,0,0,1,1.05,3.19v.37h-6.19a3.21,3.21,0,0,0,.77,2.1,2.33,2.33,0,0,0,1.74.73,2.18,2.18,0,0,0,1.32-.41A2.67,2.67,0,0,0,333.92,137.67Zm-4.61-2.27h4.63a2.8,2.8,0,0,0-.53-1.57,2.16,2.16,0,0,0-1.74-.81,2.23,2.23,0,0,0-1.63.64A2.55,2.55,0,0,0,329.31,135.4Z"/>
      <path class="cls-4" d="M337.13,140.34v-8.29h1.26v1.25a3.53,3.53,0,0,1,.9-1.16,1.52,1.52,0,0,1,.9-.28,2.78,2.78,0,0,1,1.45.45l-.49,1.31a2,2,0,0,0-1-.31,1.38,1.38,0,0,0-.83.28,1.47,1.47,0,0,0-.52.77,5.37,5.37,0,0,0-.24,1.64v4.34Z"/>
      <path class="cls-4" d="M343.22,137.5l-.43-6.07v-2.54h1.74v2.54l-.4,6.07Zm-.37,2.84v-1.6h1.62v1.6Z"/>
    </g>
  </g>
  <g id="Progress_Bar" data-name="Progress Bar">
    <path id="Rectangle_1346" data-name="Rectangle 1346" class="cls-18" d="M207.73,490.34h90a5,5,0,0,1,5,5h0a5,5,0,0,1-5,5h-90a5,5,0,0,1-5-5h0A5,5,0,0,1,207.73,490.34Z"/>
    <path id="Rectangle_1347" data-name="Rectangle 1347" class="cls-13" d="M189.73,490.34h25a5,5,0,0,1,5,5h0a5,5,0,0,1-5,5h-25a5,5,0,0,1-5-5h0A5,5,0,0,1,189.73,490.34Z"/>
  </g>
  <g class="cls-20">
    <g id="Backward_arrow-2" data-name="Backward arrow-2">
      <path id="Path_10-2" data-name="Path 10-2" class="cls-8" d="M54.73,322.34l1.45-1.45-5.5-5.51h12v-2.07h-12l5.5-5.51-1.45-1.46-8,8Z"/>
    </g>
  </g>
  <g class="cls-21">
    <g id="Backward_arrow-3" data-name="Backward arrow-3">
      <path id="Path_10-3" data-name="Path 10-3" class="cls-8" d="M417.73,306.34l-1.46,1.46,5.51,5.51h-12v2.07h12l-5.51,5.51,1.46,1.45,8-8Z"/>
    </g>
  </g>
</svg>
